<svg id="Layer_1" data-name="Layer 1" xmlns="http://www.w3.org/2000/svg" viewBox="0 0 143.23 86"><defs><style>.cls-1{fill:#2f6fb4;}.cls-2{fill:#fff;}.cls-3{fill:#e6ad3b;}</style></defs><polygon class="cls-1" points="143.23 26.55 71.54 53.16 0 26.61 71.69 0 143.23 26.55"/><rect class="cls-1" x="20.29" y="28.16" width="3.17" height="41.79"/><circle class="cls-1" cx="22.19" cy="70.39" r="6"/><rect class="cls-1" x="15.22" y="73.87" width="13.93" height="12.13" rx="5.22"/><rect class="cls-1" x="15.22" y="79.64" width="13.93" height="6.36"/><rect class="cls-2" x="35.46" y="35.08" width="73.7" height="36.85" rx="6.54"/><path class="cls-3" d="M40,57.35c0-1.94.26-3.36.26-5.15,0-1-.71-2.05-3.8-2.08V48.73c3.09,0,3.8-1,3.8-2.08,0-1.68-.26-3.31-.26-5.15C40,38.75,41.55,38,44.83,38h1.63v1.26H45.1c-2.68,0-3.26.69-3.26,2.42,0,1.53.16,3.18.16,4.84s-.58,2.58-2.39,2.9v.11c1.81.32,2.39,1.18,2.39,2.91s-.16,3.2-.16,4.83.58,2.43,3.26,2.43h1.36V60.9H44.83C41.55,60.9,40,60.1,40,57.35Z" transform="translate(0 0)"/><path class="cls-3" d="M52.52,39.34H63.1v1.89H54.72v5.9h7.09V49H54.72v7.82h-2.2Z" transform="translate(0 0)"/><path class="cls-3" d="M67.27,55h4.27V41.23H67.27V39.34H78v1.89H73.75V55H78v1.9H67.27Z" transform="translate(0 0)"/><path class="cls-3" d="M87.29,41.23h-5.7V39.34h13.6v1.89h-5.7V56.85h-2.2Z" transform="translate(0 0)"/><path class="cls-3" d="M98.85,59.65h1.34c2.68,0,3.28-.69,3.28-2.43s-.15-3-.15-4.83.55-2.59,2.36-2.91v-.11c-1.81-.32-2.36-1.17-2.36-2.9s.15-3.31.15-4.84c0-1.73-.6-2.42-3.28-2.42H98.85V38h1.61c3.3,0,4.83.8,4.83,3.55,0,1.84-.24,3.47-.24,5.15,0,1,.71,2.06,3.8,2.08v1.39c-3.09,0-3.8,1-3.8,2.08,0,1.79.24,3.21.24,5.15,0,2.75-1.53,3.55-4.83,3.55H98.85Z" transform="translate(0 0)"/></svg>