<svg id="Layer_1" data-name="Layer 1" xmlns="http://www.w3.org/2000/svg" viewBox="0 0 127.66 114.22"><defs><style>.cls-1,.cls-2{fill:none;stroke:#fff;stroke-miterlimit:10;}.cls-2{stroke-width:0.5px;}</style></defs><path class="cls-1" d="M5,112.61a4,4,0,0,1-4-4V5.61a4,4,0,0,1,4-4H23a4,4,0,0,1,4,4v103a4,4,0,0,1-4,4Z"/><path class="cls-1" d="M23,2.61a3,3,0,0,1,3,3v103a3,3,0,0,1-3,3H5a3,3,0,0,1-3-3V5.61a3,3,0,0,1,3-3H23m0-2H5a5,5,0,0,0-5,5v103a5,5,0,0,0,5,5H23a5,5,0,0,0,5-5V5.61a5,5,0,0,0-5-5Z"/><rect class="cls-1" x="1" y="14.61" width="26" height="5"/><path class="cls-1" d="M26,15.61v3H2v-3H26m2-2H0v7H28v-7Z"/><rect class="cls-1" x="1" y="98.61" width="26" height="5"/><path class="cls-1" d="M26,99.61v3H2v-3H26m2-2H0v7H28v-7Z"/><path class="cls-1" d="M45,112.61a4,4,0,0,1-4-4V5.61a4,4,0,0,1,4-4H63a4,4,0,0,1,4,4v103a4,4,0,0,1-4,4Z"/><path class="cls-1" d="M63,2.61a3,3,0,0,1,3,3v103a3,3,0,0,1-3,3H45a3,3,0,0,1-3-3V5.61a3,3,0,0,1,3-3H63m0-2H45a5,5,0,0,0-5,5v103a5,5,0,0,0,5,5H63a5,5,0,0,0,5-5V5.61a5,5,0,0,0-5-5Z"/><rect class="cls-1" x="41" y="14.61" width="26" height="5"/><path class="cls-1" d="M66,15.61v3H42v-3H66m2-2H40v7H68v-7Z"/><rect class="cls-1" x="41" y="98.61" width="26" height="5"/><path class="cls-1" d="M66,99.61v3H42v-3H66m2-2H40v7H68v-7Z"/><path class="cls-1" d="M105.25,113.21a4,4,0,0,1-3.88-3L75.46,10.53a3.93,3.93,0,0,1,.43-3,4,4,0,0,1,2.44-1.85L95.75,1.12a4.22,4.22,0,0,1,1-.13,4,4,0,0,1,3.88,3l25.91,99.69a4,4,0,0,1-2.87,4.88l-17.42,4.53A3.76,3.76,0,0,1,105.25,113.21Z"/><path class="cls-1" d="M96.75,2h0a3,3,0,0,1,2.91,2.24l25.91,99.69a3,3,0,0,1-2.15,3.66L106,112.12a3.22,3.22,0,0,1-.75.1,3,3,0,0,1-2.91-2.24L76.43,10.28a3,3,0,0,1,2.15-3.66L96,2.1a2.76,2.76,0,0,1,.75-.1m0-2A4.93,4.93,0,0,0,95.5.16L78.08,4.69a5,5,0,0,0-3.58,6.1l25.91,99.69a5,5,0,0,0,4.85,3.74,4.93,4.93,0,0,0,1.25-.16l17.42-4.53a5,5,0,0,0,3.58-6.1L101.6,3.74A5,5,0,0,0,96.75,0Z"/><path class="cls-2" d="M102.34,45.84l1.2,4.68-.83.21L101.76,47l-2.57.66.8,3.14-.82.21-.8-3.14-3.4.87-.25-1Z"/><path class="cls-2" d="M97.22,54.11,97.7,56l6-1.53-.49-1.89.83-.21,1.22,4.76-.83.21-.49-1.89-6,1.53.49,1.89-.82.21-1.22-4.76Z"/><path class="cls-2" d="M105.46,61.45l-.65-2.52.83-.21,1.54,6-.83.21-.65-2.52-6.8,1.74-.25-1Z"/></svg>